<svg xmlns="http://www.w3.org/2000/svg" version="1.1" xmlns:xlink="http://www.w3.org/1999/xlink" xmlns:svgjs="http://svgjs.dev/svgjs" width="1280" height="720" preserveAspectRatio="none" viewBox="0 0 1280 720">
    <g mask="url(&quot;#SvgjsMask1006&quot;)" fill="none">
        <rect width="1280" height="720" x="0" y="0" fill="#476538"></rect>
        <path d="M940.0023258529335 506.3609495251626L1035.0550939460136 341.7247257878862 870.4188702087371 246.67195769480617 775.3661021156571 411.30818143208256z" fill="rgba(255, 255, 255, 0.5)" class="triangle-float1"></path>
        <path d="M1065.257814131586 402.7325023150941L1007.0563245867954 258.678760693537 863.0025829652384 316.8802502383276 921.2040725100289 460.9339918598847z" fill="rgba(255, 255, 255, 0.5)" class="triangle-float2"></path>
        <path d="M244.86362873111622 628.5948242890603L258.47841672504495 784.2125631506724 414.0961555866571 770.5977751567438 400.48136759272836 614.9800362951315z" fill="rgba(255, 255, 255, 0.5)" class="triangle-float3"></path>
        <path d="M388.68319335904886 601.4707299010937L181.31603680929857 579.6755634927144 159.52087040091928 787.0427200424647 366.88802695066954 808.837886450844z" fill="rgba(255, 255, 255, 0.5)" class="triangle-float1"></path>
        <path d="M216.555108151297 386.224649196349L373.9327810831062 309.4664293948461 297.1745612816033 152.08875646303687 139.79688834979407 228.84697626453976z" fill="rgba(255, 255, 255, 0.5)" class="triangle-float1"></path>
        <path d="M756.686875226238 560.9991684386412L632.0181121504979 641.9600098145683 712.978953526425 766.6287728903084 837.6477166021651 685.6679315143813z" fill="rgba(255, 255, 255, 0.5)" class="triangle-float2"></path>
        <path d="M10.642529459437156 738.0877951747225L138.7818841575652 664.1065042459733 64.80059322881596 535.9671495478452-63.33876146931209 609.9484404765944z" fill="rgba(255, 255, 255, 0.5)" class="triangle-float3"></path>
        <path d="M1179.3310555109774 16.34724340024392L1009.3554418821409 85.02184905871755 1078.0300475406145 254.99746268755402 1248.005661169451 186.32285702908038z" fill="rgba(255, 255, 255, 0.5)" class="triangle-float1"></path>
        <path d="M182.71807519716992 192.77604807408494L54.20163894583328 249.99525202680587 111.4208428985542 378.5116882781425 239.93727914989086 321.2924843254216z" fill="rgba(255, 255, 255, 0.5)" class="triangle-float3"></path>
        <path d="M40.86198238962158 373.625122294943L-41.149347326122005 471.36241911710874 56.5879494960437 553.3737488328522 138.5992792117873 455.63645201068664z" fill="rgba(255, 255, 255, 0.5)" class="triangle-float3"></path>
        <path d="M499.44420067759455 153.40436876919932L318.28283441041424 108.23576712546128 273.1142327666762 289.3971333926416 454.2755990338565 334.56573503637964z" fill="rgba(255, 255, 255, 0.5)" class="triangle-float2"></path>
        <path d="M935.6319276504281 841.4019082580478L1075.2973480073201 754.1292675554928 988.0247073047652 614.4638471986007 848.3592869478731 701.7364879011557z" fill="rgba(255, 255, 255, 0.5)" class="triangle-float1"></path>
        <path d="M970.3789355026312 388.5500965718626L1099.0283202878234 397.546137908385 1108.0243616243458 268.89675312319275 979.3749768391536 259.90071178667034z" fill="rgba(255, 255, 255, 0.5)" class="triangle-float2"></path>
        <path d="M1156.1472213811044 388.2924241711629L1152.8868904469716 201.5081900511199 966.1026563269286 204.76852098525262 969.3629872610613 391.55275510529566z" fill="rgba(255, 255, 255, 0.5)" class="triangle-float1"></path>
        <path d="M398.3826636856651 165.2842188758828L404.61622634952397 46.34075763527126 285.6727651089125 40.107194971412355 279.4392024450535 159.0506562120239z" fill="rgba(255, 255, 255, 0.5)" class="triangle-float1"></path>
        <path d="M997.8821489667291 723.216784998774L917.6465944132966 572.3156540883942 766.7454635029169 652.5512086418267 846.9810180563494 803.4523395522065z" fill="rgba(255, 255, 255, 0.5)" class="triangle-float2"></path>
        <path d="M260.9443837637653 76.17773557636592L437.0254893835295 140.26601683864328 501.1137706458069-35.815088781120906 325.03266502604265-99.90337004339828z" fill="rgba(255, 255, 255, 0.5)" class="triangle-float2"></path>
        <path d="M-36.08874832829932 371.1875648068563L112.9225538308794 400.1524277855714 141.88741680959444 251.14112562639264-7.123885349584267 222.1762626476776z" fill="rgba(255, 255, 255, 0.5)" class="triangle-float1"></path>
        <path d="M296.3301911935665 530.3392001349384L174.27114777389448 488.3109010338232 132.24284867277925 610.3699444534952 254.30189209245125 652.3982435546104z" fill="rgba(255, 255, 255, 0.5)" class="triangle-float2"></path>
        <path d="M88.31501637637051 730.620810694116L291.1089794374689 687.5156231784114 248.00379192176428 484.7216601173129 45.20982886066585 527.8268476330176z" fill="rgba(255, 255, 255, 0.5)" class="triangle-float2"></path>
    </g>
    <defs>
        <mask id="SvgjsMask1006">
            <rect width="1280" height="720" fill="#ffffff"></rect>
        </mask>
        <style>
            @keyframes float1 {
                    0%{transform: translate(0, 0)}
                    50%{transform: translate(-10px, 0)}
                    100%{transform: translate(0, 0)}
                }

                .triangle-float1 {
                    animation: float1 5s infinite;
                }

                @keyframes float2 {
                    0%{transform: translate(0, 0)}
                    50%{transform: translate(-5px, -5px)}
                    100%{transform: translate(0, 0)}
                }

                .triangle-float2 {
                    animation: float2 4s infinite;
                }

                @keyframes float3 {
                    0%{transform: translate(0, 0)}
                    50%{transform: translate(0, -10px)}
                    100%{transform: translate(0, 0)}
                }

                .triangle-float3 {
                    animation: float3 6s infinite;
                }
        </style>
    </defs>
</svg>