<svg xmlns="http://www.w3.org/2000/svg" version="1.1" xmlns:xlink="http://www.w3.org/1999/xlink" xmlns:svgjs="http://svgjs.dev/svgjs" width="1280" height="720" preserveAspectRatio="none" viewBox="0 0 1280 720"><g mask="url(&quot;#SvgjsMask1003&quot;)" fill="none"><rect width="1280" height="720" x="0" y="0" fill="rgba(71, 101, 56, 1)"></rect><path d="M50 720L770 0L840.5 0L120.5 720z" fill="url(&quot;#SvgjsLinearGradient1004&quot;)"></path><path d="M460.40000000000003 720L1180.4 0L1477.4 0L757.4000000000001 720z" fill="url(&quot;#SvgjsLinearGradient1004&quot;)"></path><path d="M1228 720L508 0L-80 0L640 720z" fill="url(&quot;#SvgjsLinearGradient1005&quot;)"></path><path d="M779.5999999999999 720L59.59999999999991 0L-244.9000000000001 0L475.0999999999999 720z" fill="url(&quot;#SvgjsLinearGradient1005&quot;)"></path><path d="M702.2844031862177 720L1280 142.28440318621767L1280 720z" fill="url(&quot;#SvgjsLinearGradient1004&quot;)"></path><path d="M0 720L577.7155968137823 720L 0 142.28440318621767z" fill="url(&quot;#SvgjsLinearGradient1005&quot;)"></path></g><defs><mask id="SvgjsMask1003"><rect width="1280" height="720" fill="#ffffff"></rect></mask><linearGradient x1="0%" y1="100%" x2="100%" y2="0%" id="SvgjsLinearGradient1004"><stop stop-color="rgba(255, 255, 255, 0.25)" offset="0"></stop><stop stop-opacity="0" stop-color="rgba(255, 255, 255, 0.25)" offset="0.66"></stop></linearGradient><linearGradient x1="100%" y1="100%" x2="0%" y2="0%" id="SvgjsLinearGradient1005"><stop stop-color="rgba(255, 255, 255, 0.25)" offset="0"></stop><stop stop-opacity="0" stop-color="rgba(255, 255, 255, 0.25)" offset="0.66"></stop></linearGradient></defs></svg>