<?xml version="1.0" standalone="yes"?>
<svg xmlns="http://www.w3.org/2000/svg" width="587" height="588">
<path style="fill:#fdfefe; stroke:none;" d="M0 0L0 302C2.03146 297.781 2.39965 293.082 4.96605 289C11.2053 279.075 20.9308 271.398 28.9606 263C44.6109 246.633 59.9771 230.023 76 214C76 222.904 78.3166 235.559 75.4113 244C73.8033 248.672 69.3748 252.581 65.9961 256C59.8032 262.267 53.5439 268.391 47.7145 275C41.8459 281.654 35.0882 287.467 29.0934 294C26.368 296.97 23.1025 300.683 23.3218 305C23.6998 312.443 32.1281 317.551 37 322.09C43.1631 327.831 48.7533 334.178 55 339.83C61.3073 345.537 68.551 351.152 73.6821 358C76.3889 361.612 75.9997 365.715 76 370L76 390C58.6918 372.703 40.6922 355.957 23 339.039C13.4023 329.862 1.66179 321.448 1 307C-2.00417 314.159 0 325.256 0 333L0 390L0 588L587 588L587 0L0 0z"/>
<path style="fill:#005C43; stroke:none;" d="M201 83L221 83C224.178 83 227.964 83.5161 231 82.3966C234.619 81.0622 237.346 77.649 240 75C244.616 70.3933 249.399 65.893 253.715 61C261.632 52.0233 270.577 44.0333 278.424 35C281.779 31.1388 286.416 24.7307 292 24.3372C297.016 23.9836 300.712 28.8658 304 31.9113C311.803 39.1392 319.311 46.6081 327 53.9606C333.321 60.0049 339.804 65.8064 346 72C349.548 75.5467 353.232 80.2119 358 82.142C361.369 83.5057 365.444 83 369 83L390 83C384.261 74.8527 376.076 68.8882 369 61.9854C354.129 47.4784 339.403 32.7671 324 18.8303C314.022 9.80157 305.702 0.237854 291 1.09338C275.808 1.97742 267.784 12.9555 257.985 23C243.478 37.8713 228.767 52.5974 214.83 68C210.257 73.054 204.934 77.4146 201 83M104 92.4645C95.6422 93.9822 88.2088 99.6292 85.7894 108C83.6667 115.344 85 124.411 85 132L85 179L85 403L85 461C85 469.541 83.421 479.612 88.6489 486.996C95.6411 496.873 106.261 496 117 496L184 496L390 496L454 496C464.083 496 476.169 497.81 486 495.468C494.542 493.433 500.745 485.567 501.815 477C502.789 469.197 502 460.86 502 453L502 408L502 183L502 127C502 117.715 502.97 107.708 496.61 100.043C489.233 91.154 477.406 92 467 92L400 92L201 92L137 92C126.346 92 114.497 90.5584 104 92.4645z"/>
<path style="fill:#fdfefe; stroke:none;" d="M104 245C113.261 238.472 120.389 228.267 128.09 220C142.203 204.849 156.798 190.15 170.91 175C175.551 170.018 180.263 165.048 184.83 160C187.983 156.516 190.871 152.183 195 149.758C199.357 147.198 202.812 150.052 206 153.044C212.967 159.583 219.386 167.011 225.91 174C228.081 176.325 231.161 181.645 234.989 180.654C239.459 179.498 243.845 172.176 247.001 169C257.307 158.627 266.669 147.352 277 137C280.603 133.39 284.95 126.488 290.015 124.967C296.597 122.989 303.646 133.874 307.285 138C316.559 148.515 326.234 158.957 336.015 169C339.244 172.316 342.96 178.139 347.09 180.248C351.277 182.387 355.332 176.696 357.715 174C363.938 166.959 370.18 159.506 377.004 153.044C379.44 150.737 382.389 147.886 386 149.288C390.599 151.073 394.298 156.401 397.424 160C403.1 166.534 409.359 172.578 415.17 179C426.667 191.707 439.23 203.461 450.91 216C460.652 226.458 470.263 238.732 482 247L482 151L482 129C481.998 124.079 482.197 119.093 478.606 115.225C473.124 109.32 463.24 111 456 111L397 111L183 111L130 111C123.079 111 113.769 109.314 108.214 114.394C100.477 121.469 104 139.458 104 149L104 245M166 267C164.685 267.994 164.935 267.642 164 266C160.58 266.217 158.059 266.404 155 268C158.4 263.174 162.879 259.367 166.83 255C178.003 242.653 189.501 230.575 200.424 218C204.588 213.207 214.174 206.682 215.021 200C215.577 195.612 211.007 190.619 209 187C200.831 192.755 194.059 200.941 187 208C189.411 202.209 192.318 196.517 195.309 191C197.031 187.823 199.677 184.598 200.411 181C201.311 176.589 199.185 171.216 198 167C192.046 169.779 188.489 175.383 183.985 180C174.088 190.147 164.09 200.37 154.715 211C144.079 223.058 132.371 234.629 121 246C115.94 251.06 108.259 256.538 105.028 263C102.927 267.201 104 273.432 104 278L104 310L104 425L211 425C219.571 425 228.463 424.314 237 425.059C239.76 425.299 243.705 426.535 243.654 430C243.604 433.429 239.772 434.699 236.999 434.941C228.463 435.689 219.57 435 211 435L104 435L104 445C109.634 445 116.524 443.917 121.995 445.318C124.167 445.874 126.793 447.437 126.793 450C126.793 452.563 124.167 454.126 121.995 454.682C116.524 456.083 109.634 455 104 455L104 464L211 464C219.571 464 228.463 463.314 237 464.059C239.76 464.299 243.705 465.535 243.654 469C243.604 472.429 239.772 473.699 236.999 473.941C228.791 474.66 220.241 474 212 474L108 474C113.518 480.253 124.331 478 132 478L194 478L395 478L450 478C459.631 478 470.158 479.438 479 475C471.664 471.922 459.587 477.56 453.248 472.397C449.527 469.366 452.121 465.316 456.005 464.318C463.798 462.316 473.96 464 482 464L482 454L223 454L163 454C159.121 454 144.636 456.208 144.636 449.985C144.636 442.908 158.7 445 163 445L223 445L482 445L482 435C474.086 435 465.883 435.631 458.001 434.941C455.228 434.699 451.396 433.429 451.346 430C451.295 426.535 455.24 425.299 458 425.059C465.883 424.371 474.085 425 482 425L482 312L482 280C482 275.624 483.12 269.386 481.397 265.286C479.264 260.212 472.175 256.484 468 253.21C455.818 243.657 443.027 231.665 429 225C434.782 238.887 444.87 250.904 450 265C443.398 261.559 439.149 255.214 433.996 250C421.757 237.614 410 224.509 399 211L411 211C406.189 205.495 399.775 201.121 394 196.65C391.315 194.572 387.556 192.486 385.708 189.561C382.43 184.372 390.712 178.781 388.667 173.005C386.367 166.508 381.98 168.196 378.004 172.02C371.064 178.694 364.825 186.175 358 193C367.172 206.866 380.559 218.415 391.424 231C394.328 234.364 403.136 243.181 393.991 245.658C388.813 247.061 381.468 237.549 378 234.579C368.692 226.608 359.399 218.617 350 210.754C344.964 206.541 340.09 201.579 334 199C337.567 214.017 347.054 227.379 352 242C346.104 237.676 341.326 231.303 336.486 225.83C329.604 218.049 322.333 210.357 315 203C310.817 198.803 307.048 194.278 302.961 190C300.662 187.594 297.302 185.149 295.994 182C294.492 178.386 297.812 174.772 297.377 171C296.43 162.778 291.57 153.9 289 146C283.513 148.559 276.579 154.748 275.318 161C273.934 167.862 277.001 172.19 270.71 177.797C265.88 182.101 261.988 174.823 257.17 178.376C251.277 182.721 246.212 189.788 241 195C227.152 208.848 213.839 223.161 200 237L177 260C173.929 263.068 170.692 267.881 166 267z"/>
<path style="fill:#005C43; stroke:none;" d="M511 199L511 220C511 224.285 510.611 228.388 513.318 232C517.375 237.414 523.091 241.517 528 246.09C534.812 252.435 540.967 259.466 548 265.576C552.742 269.695 562.18 276.144 562.663 283C562.981 287.511 558.963 290.912 556.282 294C549.589 301.71 542.041 308.537 535.089 316C530.078 321.379 525.205 326.793 520 332C517.066 334.935 513.081 337.993 511.603 342C510.384 345.308 511 349.534 511 353L511 374C519.103 368.292 525.036 359.975 532 353C545.32 339.659 558.821 326.138 571.286 312C580.338 301.732 587.897 292.616 585.79 278C583.977 265.424 572.775 256.77 564 248.83C546.266 232.784 530.672 212.694 511 199M75 214C57.9902 231.01 41.9845 248.988 25 266C14.3237 276.693 1.71227 286.93 0.328704 303C-0.944813 317.791 10.0471 328.164 20 337.17C38.7559 354.141 55.2845 375.41 76 390L76 370C76 366.481 76.5969 362.249 74.9722 359C70.2433 349.542 58.385 342.349 51 334.999C43.8336 327.867 36.048 321.237 29.0432 313.985C26.5283 311.382 23.2732 307.938 23.6327 304C24.3544 296.096 35.8152 288.193 41 283C48.499 275.489 55.4874 267.516 63 260C67.2663 255.732 73.3838 250.89 75.4113 245C77.1284 240.011 76 233.223 76 228C76 223.464 76.7688 218.215 75 214M270 254L238 254C239.06 257.708 241.004 261.186 241.671 265C243.73 276.773 235.082 283.358 229 292C242.717 291.962 256.213 289 270 289L270 303L233 303C234.72 308.398 238.361 312.841 240.687 318C244.808 327.142 245.165 337.892 240.622 347C237.517 353.225 231.894 357.758 229 364C242.423 361.471 256.332 357.587 270 357L270 374C252.448 374 234.415 375.201 217 373L217 357C222.964 357.512 225.164 352.202 226.485 347C228.899 337.498 230.366 317.738 217 317C217.027 309.23 219.004 301.876 219 294C218.999 291.336 219.544 287.659 217.972 285.319C215.496 281.632 209.61 284.055 206 283.896C195.652 283.44 185.337 280.816 175 280C175.912 282.569 177.491 285.242 177.671 288C178.109 294.7 171.573 299.448 169 305C177.326 305 185.677 304.81 194 305.015C197.187 305.093 202.006 305.107 204.397 307.589C206.448 309.718 205.99 313.295 206 316C191.963 316 176.811 314.564 163 312C164.56 322.414 168.839 329.696 163.034 340C159.654 346 152.059 349.653 150 356C160.381 355.914 170.66 353.798 181 353.09C189.083 352.536 196.96 353.978 205 354L205 372C187.092 370.587 169.799 364.416 152 363C152.543 369.223 155.035 375.106 157 381C159.795 389.386 162.25 397.981 166 406L126 406C122.36 406 113.811 404.977 114.466 410.961C115.171 417.401 129.59 415 134 415L198 415L406 415L455 415C459.048 415 469.414 416.835 471.149 411.787C472.191 408.756 469.611 406.745 466.956 406.228C461.303 405.129 454.748 406 449 406L374 406C380.601 394.807 386.778 383.33 393.139 372C396.176 366.591 398.902 359.779 403.518 355.498C406.633 352.61 411.252 351.272 415 349.398C421.836 345.98 428.624 342.213 435 337.996C441.777 333.514 448.573 328.849 454.995 323.87C457.418 321.992 460.906 319.579 460.534 316.055C460.175 312.66 456.766 312.045 453.999 312.628C447.323 314.035 440.493 316.856 434 318.999C406.242 328.159 378.058 335.883 350 344L350 326C352.272 328.59 355.005 333.22 359.004 332.608C362.368 332.093 365.85 329.323 369 328.012C375.722 325.214 382.878 323.179 390 321.669C400.749 319.389 412.632 322.065 423 319C418.248 313.559 409.676 312.225 403 310C391.961 306.32 381.038 302.346 370 298.667C364.685 296.895 357.896 295.733 353.148 292.722C346.496 288.505 354.477 272.598 344.996 271.662C337.241 270.897 339 283.411 339 288C333.885 287.245 329.212 285.238 324 285C326.403 293.647 335.944 298.392 338.487 307C339.755 311.293 339 316.565 339 321C339 333.149 341.564 350.514 331.815 359.775C327.131 364.224 319.154 365.858 313 367.091C302.496 369.196 291.771 371.911 281 372L281 356C288.225 356 295.823 355.325 303 356.184C308.396 356.83 313.709 358.79 319 360C324.705 346.278 329.404 330.828 324.304 316C322.985 312.164 321.509 306.234 317.786 304.028C314.594 302.136 309.557 303 306 303L281 303L281 289C292.646 289.001 303.531 292.087 315 293C315 282.948 315.418 273.502 311.546 264C310.192 260.676 308.365 256.099 304.815 254.603C298.513 251.948 287.8 254 281 254L281 243C288.411 242.395 295.546 239.607 303 239.209C305.845 239.057 310.087 240.701 312.381 238.382C315.905 234.821 310.756 228.981 307.907 226.92C300.699 221.707 289.232 223.96 281 225C280.93 222.857 281.094 220.368 279.397 218.742C276.093 215.575 271.331 218.154 270.318 222.019C267.833 231.503 270 244.194 270 254z"/>
<path style="fill:#fdfefe; stroke:none;" d="M410 345C417.809 340.891 425.631 336.876 433 332C423.549 329.204 413.084 336.534 410 345M354 354C355.888 359.631 361.561 356.485 366 355.375C377.894 352.401 390.764 349.975 402 345L402 343C396.814 341.693 392.075 343.781 387 345C375.997 347.642 364.776 350.554 354 354M336 373C339.094 377.274 344.412 375.317 349 374.339C359.862 372.022 371.772 370.401 382 366L382 364C377.435 362.745 373.564 364.107 369 364.916C358.444 366.786 345.659 368.325 336 373M303 387L304 391C306.766 390.643 316.399 390.297 317.079 386.835C317.442 384.987 315.29 384.48 313.941 384.434C310.26 384.31 306.328 385.594 303 387M201 394C197.447 387.552 184.698 387.935 178 386.6C175.888 386.179 170.759 384.279 169.176 386.584C167.059 389.667 174.483 390.774 176 391.116C183.378 392.778 193.655 396.019 201 394M276.148 388.032C269.876 391.656 275.607 401.431 281.852 397.957C288.38 394.325 282.868 384.149 276.148 388.032M228.228 388.758C221.963 391.46 226.364 401.734 232.891 399.238C240.073 396.492 235.012 385.831 228.228 388.758M251.434 389.029C245.72 392.91 251.674 402.492 257.852 398.968C264.709 395.056 257.708 384.766 251.434 389.029z"/>
<path style="fill:#005C43; stroke:none;" d="M263.228 425.742C258.472 427.97 260.815 433.58 265.019 434.682C272.187 436.561 281.603 435 289 435L393 435L421 435C424.524 435 429.783 435.896 432.677 433.397C436.61 430.001 432.971 425.778 428.995 425.148C419.458 423.636 408.659 425 399 425L303 425L276 425C272.169 425 266.789 424.075 263.228 425.742M263.228 464.742C258.472 466.97 260.815 472.58 265.019 473.682C272.187 475.561 281.603 474 289 474L393 474L421 474C424.524 474 429.783 474.896 432.677 472.397C436.61 469.001 432.971 464.778 428.995 464.148C419.458 462.636 408.659 464 399 464L303 464L276 464C272.169 464 266.789 463.075 263.228 464.742M196 505C201.471 512.767 209.294 518.378 216 525.004C230.776 539.604 245.806 553.936 261 568.089C272.536 578.836 281.94 588.891 299 586.816C311.25 585.325 318.899 575.104 327 567C340.676 553.319 353.908 539.15 367.09 525C373.308 518.324 380.735 512.474 386 505L366 505C362.544 505 358.299 504.374 355.004 505.603C351.091 507.063 348.644 511.066 345.91 514C340.168 520.162 333.822 525.753 328.17 532C320.727 540.225 312.659 547.821 305.17 555.996C302.278 559.152 298.778 564.095 294 564.187C289.18 564.28 285.081 559.05 282 556C274.126 548.205 265.865 540.828 258 533.001C251.811 526.842 245.181 521.181 239 515C235.788 511.788 232.385 507.22 228 505.603C224.692 504.384 220.466 505 217 505L196 505z"/>
</svg>
